Release Info:

General

Format                                   : Matroska
Format version                           : Version 2
File size                                : 694 MiB
Duration                                 : 1h 26mn
Overall bit rate                         : 1 127 Kbps

Video
ID                                       : 1
Format                                   : MPEG-4 Visual
Format profile                           : Advanced Simple@L5
Format settings, BVOP                    : Yes
Format settings, QPel                    : No
Format settings, GMC                     : No warppoints
Format settings, Matrix                  : Default (H.263)
Codec ID                                 : V_MS/VFW/FOURCC / XVID
Codec ID/Hint                            : XviD
Duration                                 : 1h 26mn
Bit rate                                 : 992 Kbps
Width                                    : 640 pixels
Height                                   : 272 pixels
Display aspect ratio                     : 2.35:1
Frame rate mode                          : Constant
Frame rate                               : 23.976 fps
Color space                              : YUV
Chroma subsampling                       : 4:2:0
Bit depth                                : 8 bits
Scan type                                : Progressive
Compression mode                         : Lossy
Bits/(Pixel*Frame)                       : 0.238
Stream size                              : 611 MiB (88%)
Writing library                          : XviD 1.2.1 (UTC 2008-12-04)
Language                                 : English
Default                                  : Yes
Forced                                   : No

Audio
ID                                       : 2
Format                                   : MPEG Audio
Format version                           : Version 1
Format profile                           : Layer 3
Mode                                     : Joint stereo
Mode extension                           : MS Stereo
Muxing mode                              : Header stripping
Codec ID                                 : A_MPEG/L3
Codec ID/Hint                            : MP3
Duration                                 : 1h 26mn
Bit rate mode                            : Constant
Bit rate                                 : 112 Kbps
Channel(s)                               : 2 channels
Sampling rate                            : 44.1 KHz
Compression mode                         : Lossy
Stream size                              : 69.0 MiB (10%)
Writing library                          : LAME3.99r
Encoding settings                        : -m j -V 4 -q 2 -lowpass 15.6 -b 112
Language                                 : English
Default                                  : Yes
Forced                                   : No


Source:
credit to original movie ripper aTLas (Thanks)

IMDB Info:

Poltergeists attack a family in Yorkshire during the 1974 nationwide blackouts.

Director: Pat Holden
Writer: Pat Holden
Stars: Kate Ashfield, Nicky Bell and Alan Brent

Genres: Horror | Thriller
 
http://www.imdb.com/title/tt1743993/

Screen Shot:
 
http://www.shotpix.com/images/64162108763000758595.png 
http://www.shotpix.com/images/52482361958193357639.png 
http://www.shotpix.com/images/51616176526434030683.png 
http://www.shotpix.com/images/46488028745663146193.png 
http://www.shotpix.com/images/20490628786100983732.png 
http://www.shotpix.com/images/59725914648829558968.png